<svg width="56" height="28" viewBox="0 0 56 28" fill="none" xmlns="http://www.w3.org/2000/svg">
<g id="Group">
<path id="Vector" d="M16.6643 11.6619L16.3606 14.09C16.2766 14.0834 16.1474 14.0769 15.9858 14.0769C15.3526 14.0769 14.8034 14.2475 14.3252 14.5953C13.8535 14.9431 13.5498 15.3894 13.4141 15.9341L12.6646 19.8191H10.1058L11.6566 11.7669H14.2154L13.9698 13.0137C14.6677 12.1081 15.5658 11.6619 16.6578 11.6619H16.6643Z" fill="#ffffff"/>
<path id="Vector_2" d="M9.09139 10.1853C9.69231 10.7037 9.996 11.4387 9.996 12.3837C9.996 13.3287 9.79569 14.1425 9.39507 14.8446C8.99446 15.5468 8.42585 16.0981 7.67631 16.4853C6.92677 16.8725 6.04154 17.0693 5.02062 17.0693H3.23077L2.66215 20.0159H0L2.04185 9.41089H6.49385C7.61816 9.41089 8.484 9.67339 9.09139 10.1918V10.1853ZM6.81046 14.1884C7.16584 13.8406 7.34677 13.3746 7.34677 12.7775C7.34677 12.3903 7.224 12.0884 6.98492 11.8784C6.74584 11.6684 6.39693 11.5634 5.95108 11.5634H4.31631L3.70893 14.7068H5.3437C5.964 14.7068 6.45507 14.5362 6.81046 14.1884Z" fill="#ffffff"/>
<path id="Vector_3" d="M18.9969 19.8125H16.4382L17.9889 11.7603H20.5283L18.9905 19.8125H18.9969ZM20.8062 8.32815C21.0129 8.54472 21.1099 8.8269 21.1099 9.18128C21.1099 9.65378 20.9483 10.0541 20.6252 10.3757C20.3022 10.7038 19.908 10.8678 19.4428 10.8678C19.1003 10.8678 18.8289 10.7628 18.6286 10.5463C18.4283 10.3297 18.3249 10.0475 18.3249 9.69315C18.3249 9.22065 18.4865 8.82034 18.8096 8.49878C19.1326 8.17065 19.5268 8.00659 19.9791 8.00659C20.328 8.00659 20.6059 8.11159 20.8062 8.32815Z" fill="#ffffff"/>
<path id="Vector_4" d="M55.7889 9.84408C55.6403 9.60127 55.3883 9.41752 55.1234 9.34533C55.0588 9.32564 54.9942 9.31252 54.936 9.30595C54.9037 9.30595 54.8714 9.29939 54.8391 9.29939C54.8132 9.29939 49.4695 9.31252 46.2194 9.31908L44.3585 0.89283C44.3003 0.636892 44.1517 0.387517 43.9514 0.23658C43.7575 0.0856425 43.5185 -0.0062329 43.2535 0.000329597C43.0274 0.000329597 42.8012 0.0725166 42.6074 0.197204C42.42 0.315329 42.2585 0.499079 42.1551 0.702517C42.1098 0.800954 39.2538 7.92783 38.6852 9.34533L38.6529 9.41095C38.6529 9.41095 38.6077 9.46345 38.5818 9.47658L38.5237 9.4897C38.4074 9.4897 26.6345 9.92939 22.9191 10.1066C22.7575 10.1131 22.6348 10.251 22.6348 10.415C22.6348 10.4938 22.6671 10.5725 22.7252 10.6316L22.8415 10.7169H22.9385C26.6991 10.6775 38.5431 10.4938 38.5431 10.4938C38.5948 10.4938 38.64 10.4938 38.6982 10.4806C38.8015 10.4675 38.9049 10.4347 38.9954 10.3888C39.1828 10.3035 39.3443 10.1656 39.4671 9.99502C39.4994 9.94908 39.5252 9.9097 39.5511 9.86377C39.5769 9.81783 39.5963 9.76533 39.6092 9.73908L43.0597 1.68689C43.1114 1.56877 43.2794 1.58846 43.3052 1.71314L44.9788 9.73908C45.0434 10.0081 45.1985 10.2575 45.4181 10.4216C45.5215 10.5003 45.6443 10.566 45.7735 10.6053C45.8382 10.625 45.9028 10.6381 45.9609 10.6513L53.9926 10.671C54.1218 10.671 54.1671 10.835 54.0637 10.9138L47.1175 15.7897C47.0206 15.8553 46.9366 15.9406 46.8526 16.0325C46.6975 16.2228 46.5877 16.4525 46.5489 16.6888C46.5295 16.82 46.5231 16.9513 46.5425 17.0825C46.5425 17.0956 46.5425 17.1219 48.4228 25.6794L48.3905 25.7056L41.8643 21.1381C41.8191 21.1053 41.7609 21.0725 41.7092 21.0463C41.6058 20.9938 41.4895 20.9675 41.3668 20.9544C41.1471 20.9347 40.9209 20.9806 40.7271 21.0856C40.6818 21.1119 40.6302 21.1447 40.5914 21.171L33.1348 26.5522C33.0895 26.585 33.0508 26.6047 33.012 26.6047C32.9861 26.6047 32.9538 26.6047 32.928 26.585C32.9086 26.5719 32.8892 26.5456 32.8763 26.5194C32.8634 26.4866 32.8698 26.4472 32.8763 26.421C32.9151 26.3225 34.1751 23.061 34.8342 21.3481C34.8858 21.2103 34.8277 21.0594 34.6985 21.0003C34.6338 20.9675 34.5563 20.9675 34.4852 20.9872L34.3689 21.0463L32.1914 26.001C32.172 26.0469 32.1526 26.0928 32.1268 26.1585C32.0557 26.3553 32.0492 26.5719 32.1074 26.7622C32.1655 26.9656 32.2948 27.1494 32.4692 27.2741C32.6243 27.3856 32.8182 27.4447 33.0055 27.4447C33.0185 27.4447 33.0378 27.4447 33.0508 27.4447C33.2317 27.4447 33.4255 27.3725 33.5935 27.2544L41.2634 22.0372L41.1018 21.8731V21.965L47.712 26.7885C47.7508 26.8213 47.8154 26.8606 47.8671 26.8869C47.9834 26.946 48.1061 26.9853 48.2354 27.005C48.468 27.0378 48.7135 26.9985 48.9332 26.8869C49.14 26.7819 49.308 26.6375 49.4372 26.4472C49.5729 26.2438 49.6569 26.001 49.6698 25.7581C49.6698 25.6991 49.6698 25.6335 49.6698 25.581C49.6698 25.5547 49.6698 25.535 49.6569 25.476L47.8606 16.9381L55.3818 11.6816L55.4529 11.6291C55.4529 11.6291 55.4982 11.5963 55.5111 11.5831C55.6015 11.5044 55.6855 11.4125 55.7502 11.3141C56.0603 10.8744 56.0732 10.2772 55.7889 9.83095V9.84408Z" fill="#F7C14E"/>
<path id="Vector_5" d="M43.2536 12.1344C43.8416 12.4428 44.3003 12.8825 44.6169 13.4469C44.9336 14.0113 45.0951 14.6675 45.0951 15.4222C45.0951 16.3147 44.8948 17.1088 44.4942 17.8044C44.0936 18.5 43.5314 19.0381 42.8142 19.4253C42.0969 19.8125 41.2828 20.0028 40.3717 20.0028C39.5769 20.0028 38.8855 19.8453 38.2911 19.5369C37.6966 19.2285 37.2443 18.7888 36.9212 18.2178C36.6046 17.6535 36.4431 16.9906 36.4431 16.236C36.4431 15.3435 36.6434 14.5494 37.044 13.8538C37.4446 13.1581 38.0003 12.6266 38.7175 12.2394C39.4283 11.8588 40.2425 11.6685 41.1665 11.6685C41.9612 11.6685 42.6526 11.826 43.2471 12.1344H43.2536ZM39.6028 14.4706C39.2474 14.8906 39.0665 15.4419 39.0665 16.1113C39.0665 16.6428 39.2022 17.0694 39.4735 17.3975C39.7449 17.7256 40.1068 17.8897 40.5655 17.8897C41.1148 17.8897 41.5736 17.6797 41.9289 17.2597C42.2843 16.8397 42.4652 16.2885 42.4652 15.6191C42.4652 15.0875 42.3295 14.661 42.0582 14.3328C41.7868 14.0047 41.4249 13.8406 40.9662 13.8406C40.4169 13.8406 39.9582 14.0506 39.6028 14.4706Z" fill="#ffffff"/>
<path id="Vector_6" d="M34.7372 12.3838C35.2154 12.8628 35.4545 13.4994 35.4545 14.2803C35.4545 14.5691 35.4286 14.825 35.3834 15.0547L34.4659 19.8191H31.9071L32.7406 15.4419C32.7729 15.291 32.7859 15.1597 32.7859 15.0416C32.7859 14.6938 32.6825 14.4181 32.4822 14.2147C32.2819 14.0113 32.004 13.9128 31.6486 13.9128C31.2286 13.9128 30.8474 14.0835 30.5049 14.4181C30.1625 14.7528 29.9428 15.1925 29.8394 15.7306L29.0511 19.8256H26.4923L27.3388 15.4485C27.3646 15.3106 27.384 15.1794 27.384 15.0613C27.384 14.7069 27.2806 14.4247 27.0803 14.2213C26.88 14.0178 26.6022 13.9194 26.2468 13.9194C25.8139 13.9194 25.4326 14.09 25.0902 14.4247C24.7477 14.7594 24.528 15.1991 24.4246 15.7372L23.6363 19.8322H21.0775L22.6154 11.78H25.1742L24.9739 12.8497C25.5942 12.0688 26.4019 11.675 27.384 11.675C28.0366 11.675 28.5859 11.8325 29.0317 12.141C29.4776 12.456 29.7748 12.8825 29.9299 13.4272C30.6988 12.2591 31.6551 11.6685 32.8052 11.6685C33.6194 11.6685 34.2656 11.9113 34.7437 12.3903L34.7372 12.3838Z" fill="#ffffff"/>
</g>
</svg>
