<svg width="28" height="29" viewBox="0 0 28 29" fill="none" xmlns="http://www.w3.org/2000/svg">
<g clip-path="url(#clip0_53838_44972)">
<path opacity="0.6" d="M24.7623 10.2126H24.9373V5.0501C24.9373 2.9501 23.2748 1.2876 21.1748 1.2876H6.82483C4.72483 1.2876 3.06233 2.9501 3.06233 5.0501V10.2126C1.74983 10.3001 0.699829 11.3501 0.699829 12.6626V23.9501C0.699829 26.0501 2.36233 27.7126 4.46233 27.7126H23.4498C25.5498 27.7126 27.2123 26.0501 27.2123 23.9501V12.7501C27.2998 11.3501 26.1623 10.2126 24.7623 10.2126Z" fill="#007B28"/>
<path d="M3.06284 10.2125V4.69995C3.06284 2.77495 4.63784 1.19995 6.56284 1.19995H21.4378C23.3628 1.19995 24.9378 2.77495 24.9378 4.69995V10.2125M24.7628 10.2125H23.9753C23.2753 10.2125 22.7503 10.825 22.7503 11.4375V19.05C22.7503 21.15 21.0878 22.8125 18.9878 22.8125H9.10034C7.00034 22.8125 5.33784 21.15 5.33784 19.05V11.4375C5.33784 10.7375 4.81284 10.2125 4.11284 10.2125H3.23784C1.83784 10.2125 0.787842 11.3499 0.787842 12.6624V24.2124C0.787842 26.1374 2.36284 27.7124 4.28784 27.7124H23.8003C25.7253 27.7124 27.3003 26.1374 27.3003 24.2124V12.75C27.3003 11.35 26.1628 10.2125 24.7628 10.2125Z" stroke="#007B28" stroke-width="1.61538" stroke-miterlimit="10"/>
</g>
<defs>
<clipPath id="clip0_53838_44972">
<rect width="28" height="28" fill="white" transform="translate(0 0.5)"/>
</clipPath>
</defs>
</svg>
