<svg width="26" height="27" viewBox="0 0 26 27" fill="none" xmlns="http://www.w3.org/2000/svg">
<g clip-path="url(#clip0_53838_44908)">
<path d="M2.84407 9.51883V4.40009C2.84407 2.61259 4.30657 1.15009 6.09407 1.15009H19.9066C21.6941 1.15009 23.1566 2.61259 23.1566 4.40009V9.51883M22.9941 9.51883H22.2628C21.6128 9.51883 21.1253 10.0876 21.1253 10.6563V17.7251C21.1253 19.6751 19.5816 21.2188 17.6316 21.2188H8.45032C6.50032 21.2188 4.95657 19.6751 4.95657 17.7251V10.6563C4.95657 10.0063 4.46907 9.51883 3.81907 9.51883H3.00657C1.70657 9.51883 0.731567 10.5751 0.731567 11.7938V22.5188C0.731567 24.3063 2.19407 25.7688 3.98157 25.7688H22.1003C23.8878 25.7688 25.3503 24.3063 25.3503 22.5188V11.8751C25.3503 10.5751 24.2941 9.51883 22.9941 9.51883Z" stroke="#FF42B3" stroke-width="1.5" stroke-miterlimit="10"/>
<g opacity="0.7">
<path d="M14.2124 8.94387C14.0124 8.45012 13.5311 8.12512 12.9999 8.12512C12.4686 8.12512 11.9874 8.45012 11.7874 8.94387L9.87488 13.7501H11.7499V17.5001H14.2499V13.7501H16.1249L14.2124 8.94387Z" fill="#FF42B3"/>
<path d="M12.9999 7.50012C13.6902 7.50012 14.2499 6.94048 14.2499 6.25012C14.2499 5.55977 13.6902 5.00012 12.9999 5.00012C12.3095 5.00012 11.7499 5.55977 11.7499 6.25012C11.7499 6.94048 12.3095 7.50012 12.9999 7.50012Z" fill="#FF42B3"/>
</g>
</g>
<defs>
<clipPath id="clip0_53838_44908">
<rect width="26" height="26" fill="white" transform="translate(0 0.5)"/>
</clipPath>
</defs>
</svg>
