<svg width="32" height="71" viewBox="0 0 32 71" fill="none" xmlns="http://www.w3.org/2000/svg">
<rect x="0.75" y="1.25" width="30.5" height="68.5" rx="5.25" fill="white"/>
<rect x="0.75" y="1.25" width="30.5" height="68.5" rx="5.25" stroke="#FF42B3" stroke-width="1.5"/>
<path d="M5 62.2C5 61.175 5 60.6624 5.16747 60.2581C5.39075 59.7191 5.81903 59.2908 6.3581 59.0675C6.76239 58.9 7.27493 58.9 8.3 58.9H23.7C24.7251 58.9 25.2376 58.9 25.6419 59.0675C26.181 59.2908 26.6092 59.7191 26.8325 60.2581C27 60.6624 27 61.175 27 62.2C27 63.2251 27 63.7376 26.8325 64.1419C26.6092 64.681 26.181 65.1093 25.6419 65.3326C25.2376 65.5 24.7251 65.5 23.7 65.5H8.3C7.27493 65.5 6.76239 65.5 6.3581 65.3326C5.81903 65.1093 5.39075 64.681 5.16747 64.1419C5 63.7376 5 63.2251 5 62.2Z" fill="#FFE3F3"/>
<g opacity="0.7">
<path d="M17.3301 27.2326C17.1107 26.6401 16.5827 26.2501 15.9999 26.2501C15.417 26.2501 14.889 26.6401 14.6696 27.2326L12.5713 33.0001H14.6284V37.5001H17.3713V33.0001H19.4284L17.3301 27.2326Z" fill="#FF42B3"/>
<path d="M15.9998 25.5001C16.7573 25.5001 17.3713 24.8285 17.3713 24.0001C17.3713 23.1717 16.7573 22.5001 15.9998 22.5001C15.2424 22.5001 14.6284 23.1717 14.6284 24.0001C14.6284 24.8285 15.2424 25.5001 15.9998 25.5001Z" fill="#FF42B3"/>
</g>
</svg>
