<svg xmlns="http://www.w3.org/2000/svg" width="40" height="40" viewBox="0 0 40 40" fill="none" class="driver__ind-seat-styles-module-scss-ZlXuS"><path d="M38.7222 18.521C39.9065 42.9616 2.97263 45.1572 1.278 20.7139C0.0937346 -3.7255 37.0276 -5.92111 38.7222 18.521ZM6.85361 14.9134H33.1466C29.84 2.85115 10.1587 2.85589 6.85361 14.9134ZM17.6142 33.3626C17.6854 26.7541 13.022 19.8117 5.99136 19.5594C5.87927 26.7284 11.5146 32.5365 17.6142 33.3626ZM34.0097 19.6143C26.8539 19.6963 22.5045 26.8279 22.2997 33.3742C28.4857 32.5365 34.121 26.7284 34.0097 19.6143ZM22.338 19.6081C22.3545 16.579 17.6195 16.6012 17.6622 19.6281C17.6457 22.6571 22.3808 22.6348 22.338 19.6081Z" fill="#B0B0B0"></path></svg>